<mxfile host="Electron" agent="Mozilla/5.0 (Windows NT 10.0; Win64; x64) AppleWebKit/537.36 (KHTML, like Gecko) draw.io/28.2.8 Chrome/140.0.7339.240 Electron/38.4.0 Safari/537.36" version="28.2.8">
  <diagram name="Page-1" id="dPaI9WlB90orGU7EQ_an">
    <mxGraphModel dx="1611" dy="839" grid="1" gridSize="10" guides="1" tooltips="1" connect="1" arrows="1" fold="1" page="1" pageScale="1" pageWidth="850" pageHeight="1100" math="0" shadow="0">
      <root>
        <mxCell id="0" />
        <mxCell id="1" parent="0" />
        <mxCell id="gKsQHBLXhD31pyL9Tydo-1" value="Match start =&amp;gt;&amp;nbsp;&lt;div&gt;Players in it, average MMR, results from matches played&lt;/div&gt;" style="rounded=1;whiteSpace=wrap;html=1;" parent="1" vertex="1">
          <mxGeometry x="590" y="480" width="230" height="200" as="geometry" />
        </mxCell>
        <mxCell id="gKsQHBLXhD31pyL9Tydo-3" value="Discord: Dota and Chill&lt;div&gt;#dota2&lt;br&gt;&lt;div&gt;&lt;br&gt;&lt;/div&gt;&lt;/div&gt;" style="text;html=1;whiteSpace=wrap;strokeColor=none;fillColor=none;align=center;verticalAlign=middle;rounded=0;" parent="1" vertex="1">
          <mxGeometry x="640" y="450" width="130" height="30" as="geometry" />
        </mxCell>
        <mxCell id="gKsQHBLXhD31pyL9Tydo-5" value="" style="edgeStyle=orthogonalEdgeStyle;rounded=0;orthogonalLoop=1;jettySize=auto;html=1;" parent="1" source="gKsQHBLXhD31pyL9Tydo-4" target="gKsQHBLXhD31pyL9Tydo-1" edge="1">
          <mxGeometry relative="1" as="geometry" />
        </mxCell>
        <mxCell id="gKsQHBLXhD31pyL9Tydo-7" value="Discord API" style="edgeLabel;html=1;align=center;verticalAlign=middle;resizable=0;points=[];" parent="gKsQHBLXhD31pyL9Tydo-5" vertex="1" connectable="0">
          <mxGeometry x="-0.1215" relative="1" as="geometry">
            <mxPoint as="offset" />
          </mxGeometry>
        </mxCell>
        <mxCell id="gKsQHBLXhD31pyL9Tydo-9" value="" style="edgeStyle=orthogonalEdgeStyle;rounded=0;orthogonalLoop=1;jettySize=auto;html=1;entryX=0;entryY=0.5;entryDx=0;entryDy=0;startArrow=none;startFill=0;endArrow=block;endFill=1;" parent="1" source="gKsQHBLXhD31pyL9Tydo-8" target="gKsQHBLXhD31pyL9Tydo-4" edge="1">
          <mxGeometry relative="1" as="geometry" />
        </mxCell>
        <mxCell id="gKsQHBLXhD31pyL9Tydo-10" value="data:&lt;div&gt;structure of data&lt;/div&gt;&lt;div&gt;HTTP POST&lt;/div&gt;&lt;div&gt;to web endpoint&lt;/div&gt;" style="edgeLabel;html=1;align=center;verticalAlign=middle;resizable=0;points=[];" parent="gKsQHBLXhD31pyL9Tydo-9" vertex="1" connectable="0">
          <mxGeometry x="-0.2889" y="1" relative="1" as="geometry">
            <mxPoint x="15" as="offset" />
          </mxGeometry>
        </mxCell>
        <mxCell id="gKsQHBLXhD31pyL9Tydo-8" value="DOTA2 Client&lt;div&gt;Publishes Events&lt;/div&gt;" style="rounded=0;whiteSpace=wrap;html=1;" parent="1" vertex="1">
          <mxGeometry x="30" y="130" width="230" height="170" as="geometry" />
        </mxCell>
        <mxCell id="gKsQHBLXhD31pyL9Tydo-11" value="" style="group" parent="1" vertex="1" connectable="0">
          <mxGeometry x="320" y="340" width="195" height="190" as="geometry" />
        </mxCell>
        <mxCell id="gKsQHBLXhD31pyL9Tydo-4" value="Detects a new game is being played(subscribes to events), gathers data from that match, pushes/publishes data to Discord channel.&lt;div&gt;Need webendpoint&lt;/div&gt;" style="rounded=1;whiteSpace=wrap;html=1;" parent="gKsQHBLXhD31pyL9Tydo-11" vertex="1">
          <mxGeometry y="30" width="195" height="160" as="geometry" />
        </mxCell>
        <mxCell id="gKsQHBLXhD31pyL9Tydo-6" value="DOTA2_bot.py" style="text;html=1;whiteSpace=wrap;strokeColor=none;fillColor=none;align=center;verticalAlign=middle;rounded=0;" parent="gKsQHBLXhD31pyL9Tydo-11" vertex="1">
          <mxGeometry x="27.5" width="140" height="40" as="geometry" />
        </mxCell>
      </root>
    </mxGraphModel>
  </diagram>
</mxfile>
